<mxfile host="app.diagrams.net" modified="2023-09-28T15:47:35.074Z" agent="Mozilla/5.0 (Windows NT 10.0; Win64; x64) AppleWebKit/537.36 (KHTML, like Gecko) Chrome/116.0.0.0 Safari/537.36" version="21.8.1" etag="83Uaw0CYX3-XdDGABIvQ" type="github">
  <diagram name="Page-1" id="3PSPPRO8mxTIw1ttc0b9">
    <mxGraphModel>
      <root>
        <mxCell id="0" />
        <mxCell id="1" parent="0" />
      </root>
    </mxGraphModel>
  </diagram>
</mxfile>
